<svg xmlns="http://www.w3.org/2000/svg" viewBox="0 0 400 400" role="img" aria-label="Faerie Jona — placeholder portrait">
  <defs>
    <radialGradient id="bg" cx="50%" cy="35%" r="70%">
      <stop offset="0%" stop-color="#fff6ee"/>
      <stop offset="55%" stop-color="#ffe8f4"/>
      <stop offset="100%" stop-color="#f3e9ff"/>
    </radialGradient>
    <linearGradient id="figure" x1="0" y1="0" x2="0" y2="1">
      <stop offset="0%" stop-color="#d63bc4"/>
      <stop offset="100%" stop-color="#7c5cff"/>
    </linearGradient>
  </defs>
  <rect width="400" height="400" fill="url(#bg)"/>
  <circle cx="200" cy="150" r="74" fill="url(#figure)" opacity="0.92"/>
  <path d="M84 400 C84 264 132 210 200 210 C268 210 316 264 316 400 Z" fill="url(#figure)" opacity="0.92"/>
  <g fill="#e8c34a">
    <path d="M120 90 l4 12 12 4 -12 4 -4 12 -4 -12 -12 -4 12 -4 z"/>
    <path d="M292 130 l3 9 9 3 -9 3 -3 9 -3 -9 -9 -3 9 -3 z"/>
    <path d="M260 60 l3 9 9 3 -9 3 -3 9 -3 -9 -9 -3 9 -3 z"/>
  </g>
  <text x="200" y="380" text-anchor="middle" font-family="Georgia, serif" font-style="italic" font-size="14" fill="#93157e" opacity="0.75">placeholder — swap in art/brand portrait</text>
</svg>
